<svg width="28" height="19" viewBox="0 0 28 19" fill="none" xmlns="http://www.w3.org/2000/svg">
<path d="M-1 0H29V19H-1V0Z" fill="#006C35"/>
<path fill-rule="evenodd" clip-rule="evenodd" d="M11.9316 4.48744C11.9161 4.48702 11.8929 4.49523 11.8603 4.51359C11.7872 4.56014 11.6423 4.70359 11.6378 4.86862C11.6334 4.96172 11.6149 4.96138 11.6791 5.02062C11.7255 5.08412 11.7717 5.07789 11.8653 5.03134C11.9191 4.99372 11.9372 4.9697 11.9553 4.90662C11.9776 4.80083 11.8381 4.9567 11.8203 4.83898C11.7891 4.72965 11.8782 4.6847 11.9628 4.57887C11.9648 4.52909 11.9657 4.48843 11.9316 4.48744ZM13.2941 4.49459C13.2679 4.49789 13.2359 4.52974 13.1915 4.60619C13.1597 4.6863 13.0225 4.80748 13.1215 5.05744C13.2025 5.2159 13.2358 5.4735 13.1991 5.76044C13.1429 5.84199 13.1301 5.87007 13.0565 5.95162C12.9532 6.05726 12.8412 6.03024 12.7553 5.9908C12.675 5.93942 12.6119 5.91305 12.5753 5.74976C12.5819 5.48946 12.5979 5.06348 12.5478 4.97312C12.474 4.83313 12.3523 4.88333 12.3003 4.92562C12.0504 5.14268 11.927 5.50919 11.8515 5.80076C11.7823 6.01333 11.7084 5.95185 11.6565 5.86612C11.5303 5.75372 11.5215 4.87493 11.3691 5.0194C11.125 5.68212 11.5091 6.40811 11.7753 6.33755C11.9673 6.41309 12.0892 6.06585 12.1678 5.68562C12.2216 5.57892 12.2627 5.56668 12.2903 5.62151C12.2832 6.12714 12.3285 6.23993 12.4653 6.39337C12.7705 6.61708 13.023 6.42172 13.0428 6.40287L13.2803 6.17723C13.3332 6.12441 13.4031 6.12118 13.4778 6.16773C13.5504 6.23043 13.5411 6.33846 13.6966 6.41359C13.8274 6.46329 14.1068 6.42563 14.1716 6.31859C14.2588 6.17658 14.2799 6.12779 14.3203 6.07394C14.3826 5.99521 14.4891 6.03009 14.4891 6.05494C14.4791 6.09883 14.4166 6.14211 14.4591 6.22119C14.5331 6.27394 14.5503 6.24004 14.5941 6.2283C14.7489 6.158 14.8653 5.8388 14.8653 5.8388C14.8722 5.71978 14.8009 5.72879 14.7553 5.7533C14.6959 5.7878 14.6923 5.79954 14.6328 5.83405C14.5571 5.84473 14.4104 5.89219 14.3378 5.78537C14.2637 5.65693 14.2633 5.47791 14.2066 5.34837C14.2066 5.33895 14.1075 5.14469 14.1991 5.13226C14.2453 5.1404 14.3447 5.16479 14.3603 5.0859C14.4088 5.00907 14.2557 4.79102 14.1516 4.68101C14.0611 4.5867 13.9363 4.57522 13.8153 4.67151C13.7306 4.74554 13.7432 4.82823 13.7266 4.90662C13.705 4.99668 13.7091 5.10821 13.8053 5.22726C13.8899 5.38565 14.0435 5.58883 13.9928 5.87562C13.9928 5.87562 13.9036 6.01208 13.7466 5.99437C13.6811 5.9808 13.5745 5.9539 13.5178 5.55619C13.4749 5.25512 13.5286 4.83336 13.3941 4.63583C13.3637 4.56135 13.3377 4.48896 13.2941 4.49455V4.49459ZM12.8629 4.52651C12.8222 4.52985 12.7771 4.57488 12.7403 4.66186C12.7088 4.72798 12.6703 5.07393 12.6766 5.07393C12.6514 5.17691 12.7898 5.2205 12.8529 5.08818C12.9473 4.84559 12.9478 4.74223 12.9541 4.63933C12.9394 4.56093 12.9035 4.52312 12.8629 4.52651ZM14.4553 4.55379C14.4135 4.5574 14.3803 4.58066 14.3678 4.63929C14.3512 4.77723 14.3597 4.8522 14.3841 4.96704C14.4028 5.04361 14.5201 5.17182 14.5779 5.24611C14.8537 5.59837 15.1191 5.95227 15.3754 6.31843C15.4151 6.58492 15.4447 6.85267 15.4641 7.12118C15.5057 7.70198 15.5183 8.42496 15.4804 9.03661C15.5949 9.04091 15.7784 8.8609 15.8429 8.59726C15.8847 8.23253 15.8279 7.48842 15.8241 7.27318C15.8214 7.18385 15.8156 7.07722 15.8091 6.96561C16.1217 7.45079 16.4124 7.94841 16.6804 8.45711C16.7839 8.41037 16.7609 7.85679 16.7004 7.77904C16.4732 7.31441 16.1592 6.85579 16.0592 6.6794C16.023 6.61571 15.9 6.43794 15.7541 6.2329C15.7273 5.94037 15.6981 5.69257 15.6791 5.61775C15.6323 5.30851 15.8129 5.65264 15.7879 5.4729C15.7293 5.16407 15.5499 4.9542 15.3379 4.67132C15.2695 4.57933 15.2709 4.56055 15.1654 4.6939C15.1023 4.82978 15.1032 4.94287 15.1217 5.04893C15.0869 5.00061 15.0498 4.95386 15.0104 4.90882C14.8274 4.75964 14.8161 4.7515 14.6641 4.62975C14.6163 4.59745 14.5251 4.54775 14.4554 4.55375L14.4553 4.55379ZM19.1753 4.60015C19.155 4.59711 19.1328 4.60661 19.1078 4.64168C19.0601 4.68143 19.0088 4.7534 19.0103 4.84593C19.0219 5.00892 19.0525 5.17577 19.0641 5.33876C19.0682 5.36057 19.0725 5.38227 19.0766 5.40408C19.0629 5.38715 19.0483 5.37089 19.0329 5.35536C18.6985 5.02165 19.1865 5.30083 18.9691 5.04308C18.7853 4.85129 18.7315 4.79026 18.5741 4.67493C18.4952 4.62648 18.4475 4.53392 18.4216 4.69158C18.4113 4.83005 18.4005 4.99045 18.4103 5.10722C18.4098 5.17209 18.4805 5.29422 18.5416 5.36608C18.7737 5.63749 19.0004 5.91304 19.2216 6.19258C19.2698 6.78219 19.2827 7.3227 19.3316 7.91326C19.3247 8.16584 19.2429 8.50134 19.1653 8.53311C19.1653 8.53311 19.0469 8.59771 18.9678 8.52601C18.9103 8.50404 18.6803 8.16143 18.6803 8.16143C18.5626 8.05891 18.4841 8.08821 18.4003 8.16143C18.1693 8.37336 18.0648 8.77031 17.9079 9.04376C17.8674 9.10475 17.7534 9.15669 17.6266 9.03901C17.3047 8.62116 17.4929 8.02638 17.4529 8.17926C17.1661 8.48622 17.2931 8.99493 17.3579 9.10433C17.4524 9.28399 17.5289 9.39902 17.7129 9.4879C17.8804 9.60505 18.0109 9.53194 18.0829 9.4499C18.2515 9.28388 18.2537 8.85938 18.3329 8.7754C18.3884 8.62112 18.5275 8.64764 18.5953 8.71601C18.6611 8.80584 18.7387 8.86428 18.8353 8.91315C18.9926 9.04493 19.1803 9.06887 19.3653 8.94876C19.4918 8.88138 19.5738 8.79383 19.6479 8.62101C19.7273 8.41923 19.688 7.36161 19.6703 6.77326C19.7891 6.93221 19.9064 7.09462 20.0229 7.25893C20.074 7.77539 20.0972 8.28402 20.0803 8.77179C20.0683 8.86877 20.4366 8.48223 20.4341 8.29915C20.4325 8.13898 20.4344 7.99378 20.4341 7.85857C20.6127 8.12951 20.7857 8.40501 20.9491 8.68393C21.0504 8.63294 21.0157 8.08813 20.9516 8.01297C20.7805 7.7402 20.5613 7.4454 20.3916 7.21732C20.3581 6.92947 20.3124 6.58987 20.2916 6.48582C20.2592 6.32356 20.2268 6.07987 20.1779 5.88732C20.1644 5.81216 20.1239 5.572 20.1366 5.5489C20.1566 5.49516 20.232 5.55061 20.2691 5.48832C20.3247 5.43075 20.0764 4.8196 19.9503 4.64518C19.9051 4.56701 19.8231 4.59407 19.7216 4.72118C19.6275 4.80486 19.6619 4.99569 19.6979 5.17718C19.7912 5.63979 19.8745 6.11092 19.9403 6.58082C19.8025 6.38599 19.6633 6.19204 19.5228 5.99897C19.5189 5.97959 19.5041 5.90853 19.5041 5.90754C19.5041 5.89922 19.4839 5.5291 19.4666 5.4409C19.4636 5.40507 19.4546 5.39473 19.4941 5.39929C19.536 5.43277 19.5417 5.43459 19.5678 5.44565C19.6101 5.45298 19.6471 5.38504 19.6216 5.32215C19.4908 5.0929 19.3599 4.86262 19.2291 4.63336C19.2133 4.61866 19.1957 4.60311 19.1753 4.60011V4.60015ZM6.99414 4.61201C6.92166 4.61003 6.84166 4.6527 6.8729 4.73551C6.8547 4.78061 7.01478 4.93311 7.0429 5.01693C7.0681 5.07659 7.0179 5.26876 7.07038 5.28651C7.11866 5.30638 7.1851 5.15347 7.21038 5.01215C7.22438 4.93478 7.21378 4.66988 7.02414 4.61554C7.01428 4.61343 7.00424 4.61223 6.99414 4.61197V4.61201ZM20.8705 4.61353C20.854 4.61505 20.8339 4.64043 20.8031 4.70256C20.7289 4.818 20.7033 5.02472 20.7331 5.20724C20.9117 6.35495 21.0444 7.46634 21.0718 8.4836C21.0564 8.58012 21.0519 8.63149 21.0043 8.75313C20.8989 8.88153 20.7826 9.04247 20.6731 9.12006C20.5635 9.19762 20.3305 9.27157 20.2543 9.32906C20.0125 9.46183 20.0113 9.61448 20.2068 9.62003C20.5436 9.58286 20.9422 9.5566 21.2168 9.16285C21.2903 9.0525 21.3768 8.75336 21.3805 8.57028C21.4062 7.49689 21.3661 6.44737 21.1968 5.6716C21.1859 5.59598 21.1508 5.42232 21.1643 5.39963C21.1861 5.34651 21.2963 5.40495 21.3355 5.34385C21.3931 5.28799 21.0505 4.87128 20.9305 4.6931C20.9065 4.64833 20.8918 4.61151 20.8705 4.61353ZM17.3381 4.63131C17.3241 4.63359 17.3036 4.65373 17.2656 4.70138C17.1715 4.99368 17.1384 5.23236 17.1743 5.41388C17.416 6.61217 17.6637 7.70388 17.6243 8.84456C17.7389 8.84532 17.8715 8.59547 17.9281 8.3482C17.9591 8.00761 17.9074 7.80028 17.8981 7.60006C17.8888 7.39988 17.6595 5.77553 17.6131 5.62406C17.5571 5.33765 17.836 5.5864 17.8056 5.41981C17.7091 5.20982 17.4684 4.904 17.3931 4.72156C17.3648 4.67269 17.3613 4.62751 17.3381 4.63131H17.3381ZM8.73686 4.65388C8.70714 4.65878 8.67846 4.682 8.6681 4.72038C8.66158 4.7455 8.67954 4.7873 8.65562 4.79995C8.64186 4.81314 8.5897 4.80429 8.59186 4.73463C8.59186 4.71244 8.5747 4.6893 8.56434 4.67528C8.55394 4.66882 8.54694 4.66692 8.5281 4.66692C8.50518 4.66783 8.5057 4.67357 8.4931 4.69188C8.4875 4.7105 8.4803 4.72874 8.4803 4.75002C8.47746 4.7748 8.46698 4.7832 8.44782 4.78684C8.42634 4.78684 8.43142 4.78905 8.41406 4.77852C8.40374 4.76781 8.39154 4.76359 8.39154 4.74527C8.39154 4.72631 8.38634 4.69606 8.38034 4.68352C8.37118 4.67212 8.35678 4.66616 8.34034 4.66217C8.25042 4.66247 8.2439 4.76059 8.24906 4.79752C8.24234 4.80448 8.23898 4.9784 8.36154 5.0267C8.5261 5.10126 8.83462 5.06972 8.82154 4.8177C8.82154 4.79543 8.81638 4.72057 8.81406 4.70013C8.79726 4.663 8.76626 4.64894 8.73654 4.65384L8.73686 4.65388ZM10.9444 4.65628C10.892 4.65901 10.8409 4.67235 10.7944 4.69542C10.6853 4.79463 10.6597 4.95366 10.7456 5.05288C10.8292 5.09039 10.9126 5.1703 10.8569 5.21438C10.6205 5.4542 10.0054 5.85495 9.97438 5.92806C9.97414 5.92867 9.9733 5.92988 9.97318 5.93042C9.97306 5.93095 9.97318 5.93232 9.97318 5.93281C9.97318 5.93304 9.9731 5.9338 9.97318 5.93399C9.97347 5.93483 9.97388 5.93563 9.97438 5.93638C9.97454 5.93653 9.97546 5.93741 9.97566 5.93752C9.97586 5.93767 9.97666 5.93745 9.97686 5.93752C9.97714 5.93767 9.97786 5.93866 9.97814 5.93874C9.97842 5.93881 9.97906 5.93866 9.97938 5.93874L9.98062 5.93992C10.0119 5.95983 10.3968 5.95937 10.4394 5.94109C10.4397 5.94094 10.4404 5.94007 10.4406 5.93995C10.4408 5.93984 10.4418 5.93999 10.4419 5.93995C10.442 5.93984 10.4418 5.93881 10.4419 5.93874C10.5742 5.89242 11.2019 5.21081 11.2019 5.21081C11.1693 5.18436 11.1394 5.16483 11.1069 5.13838C11.0721 5.10973 11.0756 5.08157 11.1069 5.05288C11.2623 4.96693 11.2131 4.77784 11.1319 4.69188C11.0646 4.66319 11.0013 4.6535 10.9444 4.65624V4.65628ZM16.7144 4.65863C16.6979 4.66019 16.6777 4.68436 16.6469 4.74653C16.5727 4.86193 16.5223 5.06299 16.5281 5.25117C16.6888 6.30814 16.7381 7.23306 16.8431 8.29003C16.8517 8.39225 16.8359 8.54075 16.7643 8.59995C16.4998 8.86238 16.1183 9.18607 15.7031 9.33503C15.6585 9.38268 15.8142 9.58579 16.0156 9.5856C16.3525 9.54843 16.6485 9.36881 16.9231 8.89567C16.9966 8.78532 17.1256 8.54911 17.1294 8.36603C17.1551 7.29264 17.0725 6.45805 16.9031 5.68228C16.8923 5.60669 16.8997 5.51732 16.9131 5.49463C16.935 5.46989 17.0089 5.4952 17.0481 5.43406C17.1057 5.3782 16.8944 4.91517 16.7744 4.73699C16.7504 4.69226 16.7356 4.65662 16.7144 4.65863H16.7144ZM7.77558 4.69093C7.7291 4.6961 7.68534 4.73205 7.66434 4.78C7.65654 4.94952 7.65554 5.11896 7.67558 5.27514C7.75678 5.5492 7.78246 5.7902 7.82182 6.07083C7.83274 6.44665 7.59338 6.23339 7.60434 6.04708C7.65962 5.80502 7.6447 5.42403 7.59558 5.32743C7.55662 5.23087 7.51154 5.20705 7.41682 5.22293C7.34162 5.21856 7.14738 5.41962 7.09306 5.75258C7.09306 5.75258 7.04786 5.92342 7.02806 6.07558C7.0015 6.24749 6.88162 6.36928 6.79806 6.05183C6.72586 5.82109 6.6815 5.25261 6.56058 5.38565C6.52594 5.82949 6.48482 6.61058 6.88182 6.69072C7.36202 6.73457 7.09678 5.91955 7.27058 5.77158C7.30342 5.69846 7.36434 5.69713 7.36934 5.7894V6.48172C7.36494 6.70676 7.52082 6.77364 7.64182 6.82015C7.76774 6.81091 7.85122 6.81418 7.90058 6.93058C7.92026 7.32965 7.9409 7.72972 7.96058 8.12875C7.96058 8.12875 8.25166 8.20821 8.26558 7.45543C8.27954 7.01342 8.17294 6.6425 8.23558 6.5565C8.23778 6.47203 8.35182 6.46785 8.43058 6.509C8.5561 6.5931 8.61178 6.69661 8.80682 6.65508C9.10362 6.5774 9.28242 6.44053 9.28682 6.224C9.2695 6.01823 9.24442 5.81227 9.15058 5.6065C9.1637 5.56907 9.09378 5.47172 9.10682 5.43433C9.16018 5.51367 9.24086 5.5071 9.25934 5.43433C9.20882 5.27617 9.13014 5.12463 9.0031 5.05908C8.89806 4.97114 8.74438 4.98976 8.6881 5.17308C8.66198 5.38428 8.76866 5.63466 8.93058 5.83922C8.96498 5.91917 9.01306 6.05213 8.99182 6.17172C8.90566 6.21846 8.82022 6.199 8.74806 6.12661C8.74806 6.12661 8.51182 5.95861 8.51182 5.92118C8.57454 5.53985 8.52534 5.49619 8.49058 5.39032C8.4663 5.24429 8.39342 5.19804 8.33434 5.09822C8.27522 5.03871 8.19506 5.03871 8.15682 5.09822C8.05242 5.2702 8.10138 5.63941 8.17682 5.80479C8.23134 5.9569 8.31494 6.05179 8.27562 6.05179C8.24318 6.13774 8.17558 6.11776 8.12682 6.01854C8.05722 5.81353 8.04306 5.50793 8.04306 5.37018C8.02218 5.19941 7.9989 4.83457 7.88058 4.74204C7.84898 4.70115 7.81174 4.68694 7.77558 4.69097V4.69093ZM9.46182 4.69333C9.43798 4.69618 9.41166 4.70906 9.38058 4.71586C9.2785 4.74675 9.1829 4.83058 9.21306 4.99375C9.33374 5.69037 9.41242 6.22203 9.53306 6.91868C9.55162 7.00027 9.47962 7.10781 9.38682 7.09679C9.22902 6.99537 9.18986 6.78998 8.92058 6.79875C8.72566 6.80096 8.50338 7.00247 8.47558 7.19658C8.4431 7.35082 8.4315 7.51806 8.47558 7.65258C8.61258 7.80906 8.7767 7.79238 8.92058 7.75708C9.0389 7.71079 9.13626 7.60002 9.1781 7.62643C9.17822 7.62655 9.17922 7.62628 9.1793 7.62643C9.17946 7.62658 9.17922 7.62746 9.1793 7.62761C9.20514 7.67047 9.1769 8.0328 8.62182 8.31279C8.2807 8.45833 8.00918 8.49306 7.86302 8.22847C7.77254 8.06317 7.86962 7.43335 7.64682 7.57889C6.98782 9.19264 9.19074 9.4179 9.43682 7.64539C9.45274 7.59542 9.5013 7.54523 9.53554 7.55754C9.55058 7.56362 9.56434 7.583 9.5693 7.61929C9.51822 9.22422 7.86506 9.33423 7.5843 8.82936C7.5147 8.71034 7.49378 8.44545 7.48682 8.28668C7.47406 8.19062 7.4487 8.13525 7.4193 8.11329C7.35234 8.06548 7.2623 8.19016 7.24306 8.40665C7.21518 8.58076 7.22306 8.62857 7.22306 8.79615C7.31122 10.0638 9.43858 9.5191 9.7843 8.47193C9.95546 7.93058 9.78082 7.5222 9.83806 7.47208C9.83854 7.4717 9.84006 7.47124 9.84054 7.4709L9.84306 7.46972C9.84366 7.46949 9.8449 7.46869 9.84554 7.4685C9.84799 7.46787 9.85051 7.46749 9.85306 7.46736C10.0643 7.68343 10.3606 7.4948 10.4255 7.41986C10.4534 7.38232 10.5231 7.3583 10.5718 7.40675C10.7365 7.51923 11.0253 7.46622 11.0855 7.26783C11.1203 7.07384 11.1498 6.87415 11.1568 6.66697C11.0495 6.69862 10.9629 6.72234 10.928 6.75722C10.9197 6.76585 10.9136 6.77538 10.9118 6.78572C10.9025 6.8431 10.8936 6.90059 10.8843 6.9579C10.8833 6.96265 10.8817 6.96702 10.8793 6.97097C10.8742 6.97834 10.8674 6.98445 10.8593 6.98879C10.8213 7.00848 10.7552 6.99723 10.7518 6.94486C10.7007 6.72439 10.4907 6.6957 10.363 7.03747C10.2771 7.10359 10.1206 7.11651 10.1043 7.01729C10.1252 6.788 10.0279 6.75726 9.83302 6.86529C9.77038 6.41115 9.70822 5.97757 9.64554 5.52344C9.72674 5.52119 9.80126 5.57717 9.87554 5.48901C9.79514 5.25155 9.62514 4.76841 9.5293 4.72308C9.5285 4.7227 9.52754 4.72217 9.52678 4.7219C9.52081 4.71528 9.5141 4.70929 9.50678 4.70404C9.50502 4.7029 9.5023 4.70146 9.50054 4.70051C9.49654 4.69854 9.49234 4.69695 9.48802 4.69576C9.47953 4.69327 9.4706 4.69246 9.46178 4.6934L9.46182 4.69333ZM16.0354 4.69686C15.9511 4.6945 15.8578 4.74497 15.8942 4.84529C15.873 4.90001 16.0753 5.08568 16.1079 5.18729C16.1666 5.34343 16.0631 5.49235 16.1242 5.51386C16.1804 5.53795 16.2586 5.3527 16.2879 5.18136C16.3218 5.04289 16.2178 4.75903 16.0704 4.70043C16.0589 4.69814 16.0472 4.69695 16.0354 4.6969V4.69686ZM10.9142 4.86786C10.9526 4.86414 10.999 4.89765 11.0217 4.94504C11.0459 4.99558 11.0338 5.04391 10.9942 5.05311C10.9546 5.06234 10.9034 5.02887 10.8792 4.97829C10.855 4.92775 10.8671 4.87827 10.9067 4.86904C10.9092 4.86847 10.9117 4.86813 10.9142 4.8679V4.86786ZM20.4142 5.10179C20.3374 5.09924 20.2536 5.15468 20.2867 5.26329C20.2675 5.32257 20.4507 5.52382 20.4805 5.63379C20.5072 5.71207 20.4398 5.96439 20.4955 5.98768C20.5467 6.01375 20.6187 5.81338 20.6455 5.62786C20.6603 5.52632 20.5811 5.17 20.4467 5.10654C20.4361 5.10375 20.4252 5.10216 20.4142 5.10179ZM15.1618 5.22529C15.1689 5.25508 15.1759 5.28506 15.1806 5.31554C15.1963 5.38135 15.2099 5.44671 15.2243 5.5115C15.1637 5.43212 15.1134 5.36798 15.0918 5.34525C14.9545 5.19021 15.0949 5.24345 15.1618 5.22529ZM16.3718 5.79054C16.3421 5.79548 16.3134 5.81987 16.3031 5.85825C16.2965 5.88333 16.3158 5.92399 16.2918 5.93661C16.2781 5.9498 16.2246 5.94212 16.2268 5.8725C16.2268 5.85031 16.2097 5.82599 16.1993 5.81193C16.1889 5.80547 16.1819 5.80361 16.1631 5.80361C16.1401 5.80448 16.1407 5.81026 16.1281 5.82854C16.1227 5.8472 16.1156 5.86559 16.1156 5.88675C16.1127 5.91153 16.1035 5.91993 16.0843 5.92354C16.0629 5.92354 16.0667 5.92578 16.0493 5.91525C16.039 5.9045 16.0268 5.90028 16.0268 5.882C16.0268 5.863 16.0216 5.83276 16.0156 5.82025C16.0065 5.80885 15.9921 5.80407 15.9756 5.80004C15.8857 5.80034 15.8804 5.89728 15.8856 5.93425C15.8788 5.94121 15.8743 6.11627 15.9968 6.16461C16.1613 6.23913 16.4711 6.20645 16.4581 5.95443C16.4581 5.93213 16.4517 5.85727 16.4493 5.83686C16.4325 5.7997 16.4015 5.78567 16.3718 5.79054ZM10.847 5.84279C10.8267 5.84085 10.8001 5.84792 10.7695 5.86536C10.624 5.94014 10.5677 6.16191 10.6583 6.29172C10.7429 6.40599 10.8767 6.36411 10.8945 6.36411C11.0371 6.38106 11.122 6.11 11.122 6.11C11.122 6.11 11.1263 6.03378 10.957 6.17768C10.8858 6.19037 10.8761 6.1659 10.8583 6.12783C10.8435 6.0573 10.8466 5.98582 10.8808 5.91525C10.8965 5.87296 10.8809 5.84609 10.847 5.84283V5.84279ZM18.657 5.87725C18.5762 5.87353 18.4903 5.92323 18.4683 6.02808C18.4686 6.0899 18.4977 6.12391 18.492 6.18008C18.4836 6.21215 18.4488 6.23328 18.3658 6.1955C18.3787 6.18414 18.312 6.09458 18.312 6.09458C18.2473 6.05711 18.1608 6.09659 18.1045 6.13136C18.0735 6.18483 18.0507 6.27652 18.0858 6.37004C18.1787 6.53317 18.4975 6.81152 18.6495 6.81418C18.6523 6.66712 18.6674 6.47154 18.6758 6.34986C18.6794 6.30396 18.6907 6.25334 18.737 6.24183C18.7833 6.23031 18.8636 6.28606 18.8645 6.23825C18.8561 6.1447 18.8364 6.00661 18.7808 5.94136C18.7523 5.90127 18.7055 5.8795 18.657 5.87725ZM12.1922 6.38908C12.1901 6.38984 12.1879 6.39155 12.186 6.39261C12.185 6.39318 12.1832 6.39432 12.1822 6.395C12.1661 6.40648 12.1471 6.43297 12.1047 6.4615C12.0331 6.53883 12.0203 6.59268 12.0247 6.74768C12.0288 6.7641 12.1606 7.11218 12.2722 7.35686C12.3475 7.61119 12.4171 7.90239 12.366 8.17743C12.1897 8.54105 11.8355 8.86713 11.4935 9.04429C11.3193 9.0973 11.1688 9.07925 11.1285 9.04311L11.1273 9.04193C11.0272 8.97802 11.0249 8.86424 11.031 8.84479V8.84361L11.0323 8.84243C11.3208 8.65148 11.6504 8.49694 11.9085 7.9815C11.9847 7.78451 12.0079 7.66622 11.9322 7.36165C11.9027 7.24814 11.8663 7.15474 11.7847 7.07425L11.786 7.07311C11.8351 7.05077 11.9625 7.13996 11.9822 7.08375C11.9521 6.93833 11.8484 6.74308 11.731 6.64318C11.6282 6.55449 11.5163 6.54423 11.4222 6.6254C11.3162 6.68141 11.2937 6.88266 11.3447 7.05883C11.4014 7.19145 11.5545 7.21466 11.6635 7.48158V7.48272C11.6657 7.49947 11.7009 7.68195 11.646 7.75586C11.6014 7.88787 11.029 8.31674 10.9885 8.3425C10.988 8.34292 10.9851 8.34448 10.9847 8.3449L10.9835 8.34608C10.9833 8.34615 10.9825 8.34699 10.9822 8.34725L10.981 8.34843H10.9785C10.978 8.34806 10.9776 8.34768 10.9773 8.34729V8.34608C10.977 8.3457 10.9762 8.34414 10.976 8.34368C10.9743 8.333 10.9773 8.30572 10.976 8.26175C10.9722 8.18142 11.0072 7.99963 11.0047 7.96843V7.96729L11.0035 7.96608V7.9649H11.0022C10.813 8.08095 10.7505 8.43671 10.716 8.54204C10.237 8.85645 9.69302 9.09038 9.37974 9.4089C9.21658 9.65096 10.5039 9.13093 10.6535 9.06808C10.6548 9.06899 10.6561 9.07047 10.6573 9.07165C10.6857 9.10137 10.6881 9.20503 10.7735 9.29847C10.9073 9.47065 11.1917 9.57671 11.4685 9.511C11.9326 9.35163 12.2 9.05113 12.4723 8.71775C12.5112 8.66398 12.5721 8.62161 12.6285 8.66315C12.8156 9.06101 13.3549 9.34411 14.0523 9.37329C14.2136 9.18686 14.1365 9.09521 14.071 9.05622C14.0509 9.04349 13.7242 8.92254 13.6735 8.80211C13.6416 8.69001 13.7192 8.59064 13.8748 8.5159C14.3225 8.46448 14.7626 8.40733 15.1885 8.27726C15.1929 8.14129 15.2771 7.93799 15.3335 7.84976C15.3727 7.78846 15.3979 7.78242 15.4073 7.77376L15.4085 7.77254C15.4087 7.77239 15.4097 7.77152 15.4097 7.77136C15.41 7.77117 15.4108 7.77038 15.411 7.77019V7.76779C15.4113 7.76513 15.411 7.76046 15.4098 7.75594L15.3373 7.71554L13.9085 7.70961C13.8909 7.70315 13.8777 7.69669 13.8698 7.69061C13.8691 7.69012 13.8678 7.68871 13.8673 7.68822L13.866 7.68708L13.8648 7.68586C13.8646 7.68545 13.8637 7.68389 13.8635 7.68347L13.8623 7.68233V7.68111L13.8611 7.67994V7.67876V7.67754V7.67519V7.67401V7.67283V7.67161V7.67047C13.8613 7.67021 13.8621 7.66949 13.8623 7.66926C13.8626 7.66865 13.8631 7.66751 13.8635 7.6669C13.8705 7.65797 13.8874 7.64954 13.9085 7.64194C14.2497 7.59778 14.8558 7.50339 14.8961 6.94961C14.8897 6.66119 14.7661 6.47233 14.3936 6.41997C14.1198 6.44011 13.9246 6.69167 13.9561 6.96861C13.9429 7.04321 13.9826 7.18955 13.9023 7.20611C13.3772 7.25171 12.804 7.56426 12.7848 7.78797H12.7835L12.7823 7.78915L12.7798 7.79036H12.7773C12.7765 7.79063 12.7744 7.79131 12.7735 7.7915H12.7698C12.7685 7.79154 12.7673 7.79154 12.766 7.7915C12.7647 7.79128 12.7622 7.79063 12.761 7.79036C12.7269 7.78136 12.6829 7.72778 12.6898 7.65261C12.6698 7.26589 12.5373 6.82828 12.3298 6.49126C12.2557 6.42092 12.2235 6.39242 12.2023 6.38911C12.2016 6.38904 12.2005 6.38915 12.1998 6.38911H12.1923L12.1922 6.38908ZM13.5597 6.59333C13.53 6.59819 13.5013 6.62145 13.491 6.65983C13.4845 6.68491 13.5037 6.72671 13.4797 6.73936C13.466 6.75255 13.4125 6.74487 13.4147 6.67525C13.4147 6.65306 13.3976 6.62874 13.3872 6.61468C13.3768 6.60822 13.3711 6.60636 13.3522 6.60636C13.3293 6.60727 13.3286 6.61301 13.316 6.63133C13.3107 6.64995 13.3035 6.66838 13.3035 6.68947C13.3006 6.71428 13.2914 6.72268 13.2722 6.72633C13.2508 6.72633 13.2559 6.72853 13.2385 6.71797C13.2282 6.70729 13.2147 6.70307 13.2147 6.68475C13.2147 6.66579 13.2107 6.63554 13.2047 6.623C13.1956 6.6116 13.1799 6.60682 13.1635 6.60283C13.0736 6.60313 13.0683 6.70003 13.0735 6.73697C13.0667 6.74396 13.0622 6.91902 13.1847 6.96736C13.3493 7.04192 13.7414 6.99803 13.646 6.75722C13.646 6.73491 13.6396 6.66005 13.6372 6.63961C13.6204 6.60248 13.5894 6.58842 13.5597 6.59333ZM19.0785 6.80825C19.0739 6.80751 19.0692 6.80792 19.0648 6.80943C19.0648 6.80943 18.3024 7.32471 18.2836 7.34261C18.208 7.40645 18.2458 7.63099 18.2836 7.60504C18.3382 7.62499 19.1057 7.13087 19.0911 7.07304C19.1245 7.07494 19.1406 6.81886 19.0786 6.80825H19.0785ZM14.2801 6.88463C14.3113 6.88148 14.3521 6.89151 14.3914 6.91313C14.4483 6.94441 14.4834 6.99164 14.4789 7.02596C14.4787 7.02687 14.4791 7.02862 14.4789 7.02949C14.4787 7.0304 14.4767 7.03215 14.4764 7.03306C14.4761 7.03394 14.4755 7.03576 14.4751 7.03663C14.4749 7.0372 14.4742 7.03846 14.4739 7.03899L14.4727 7.04138C14.4705 7.04442 14.468 7.04722 14.4651 7.04971C14.4378 7.07395 14.3747 7.07049 14.3151 7.03781C14.2587 7.00684 14.2239 6.95923 14.2277 6.92499C14.2278 6.92408 14.2287 6.92233 14.2289 6.92146C14.2298 6.9172 14.2316 6.91332 14.2339 6.90956C14.2347 6.90823 14.2354 6.90603 14.2364 6.90481L14.2377 6.90363C14.2396 6.90151 14.2417 6.89953 14.2439 6.89771C14.2529 6.8909 14.2658 6.88608 14.2801 6.88463ZM7.60374 7.01524C7.2087 7.02208 6.63022 7.50715 6.61498 7.77642C7.03182 7.58627 7.44126 7.40326 7.86498 7.20642C7.79658 7.10944 7.86082 7.02208 7.60374 7.01528V7.01524ZM8.88374 7.18388C8.92246 7.18426 8.96334 7.20247 8.98498 7.25396C9.0045 7.30115 8.9859 7.35055 8.9625 7.37506C8.96238 7.37525 8.96262 7.37605 8.9625 7.37624C8.9621 7.37681 8.96162 7.37814 8.96126 7.37863C8.94466 7.39893 8.88646 7.39049 8.84498 7.39049C8.79482 7.3884 8.7701 7.38061 8.73998 7.34185C8.72558 7.29872 8.76942 7.25639 8.78878 7.22424C8.78894 7.22394 8.78978 7.22337 8.78998 7.2231C8.7921 7.22006 8.7955 7.21649 8.79878 7.2136C8.81374 7.20053 8.8397 7.18833 8.8675 7.1851C8.8729 7.18445 8.87822 7.18381 8.88374 7.18388ZM18.9301 7.33322C18.8599 7.34143 18.7931 7.40455 18.8239 7.5054C18.8046 7.56468 18.9192 7.77186 18.9489 7.88183C18.9756 7.96011 18.9145 8.18157 18.9701 8.20483C19.0214 8.23094 19.1561 8.07339 19.1514 7.8759C19.1662 7.77437 19.1133 7.40026 18.9789 7.33676C18.963 7.33257 18.9465 7.33135 18.9301 7.33319V7.33322ZM10.3977 7.69897C10.3357 7.70308 10.2803 7.73462 10.3053 7.81772C10.3015 7.87799 10.4807 7.95129 10.4915 8.09083C10.5171 8.14836 10.4532 8.33259 10.5065 8.34972C10.5554 8.36888 10.6233 8.22239 10.649 8.08608C10.6632 8.01145 10.5875 7.75035 10.459 7.70372C10.4389 7.69943 10.4183 7.69783 10.3977 7.69897ZM12.9515 8.0303C12.9562 8.02999 12.9604 8.0303 12.9653 8.0303H12.9677C13.1269 8.07137 13.3616 8.07563 13.5653 8.09558C13.7312 8.10561 13.8131 8.22896 13.6578 8.28083C13.5045 8.33072 13.3572 8.36967 13.3565 8.58008C13.3767 8.68435 13.3724 8.73903 13.3553 8.76415C13.3539 8.76605 13.3518 8.76856 13.3503 8.77012L13.3491 8.77126L13.3478 8.77247L13.3465 8.77365L13.3453 8.77483L13.3428 8.77605C13.3404 8.77745 13.3379 8.77863 13.3353 8.77958C13.3331 8.78026 13.3301 8.78042 13.3278 8.78076C13.2914 8.78585 13.2384 8.75283 13.199 8.73326C13.1045 8.66881 12.8393 8.51267 12.8015 8.17751C12.7961 8.10189 12.8557 8.03668 12.9515 8.03026L12.9515 8.0303ZM6.7139 8.28794C6.70394 8.28828 6.68406 8.31651 6.65766 8.34855C6.42266 8.70423 6.40174 9.23509 6.53142 9.39355C6.6003 9.46841 6.7139 9.50128 6.79766 9.47783C6.94526 9.41703 7.01018 9.13291 6.97514 9.02898C6.9259 8.95571 6.88686 8.94412 6.83766 9.00644C6.73374 9.20681 6.6905 9.06975 6.68142 8.95776C6.66546 8.74534 6.68714 8.54979 6.71142 8.39491C6.72434 8.31549 6.72382 8.28775 6.7139 8.28801V8.28794ZM14.7203 8.75496C14.7013 8.75385 14.6823 8.75755 14.6653 8.76567C14.6616 8.76567 14.4971 8.87139 14.4441 8.94499C14.4117 8.96836 14.4154 8.9887 14.4253 9.02932C14.4505 9.08434 14.4949 9.06709 14.5453 9.04117C14.6122 9.03251 14.6445 9.07412 14.6391 9.15042C14.6082 9.24557 14.6528 9.28103 14.6528 9.28699C14.6528 9.29296 14.7172 9.34551 14.7928 9.30364C14.9524 9.24576 15.0518 9.18945 15.2753 9.14328C15.3339 9.14221 15.3305 8.99306 15.2378 8.98774C15.1167 8.99352 15.0051 8.99941 14.884 9.08985C14.8096 9.10619 14.7968 9.06318 14.7803 9.02457C14.7614 8.92877 14.8229 8.86124 14.8103 8.78942C14.8136 8.79258 14.7727 8.75765 14.7203 8.75499V8.75496ZM19.8467 8.93667C19.817 8.93755 19.7857 8.94146 19.7405 8.94499C19.6915 8.95487 19.6744 8.97524 19.6655 9.03167C19.669 9.11725 19.7241 9.11299 19.7805 9.14685C19.8131 9.18637 19.8343 9.22209 19.7779 9.28699C19.7245 9.33351 19.6864 9.35919 19.6329 9.40574C19.6077 9.44663 19.592 9.50948 19.6692 9.52924C19.8118 9.56732 20.1417 9.36368 20.1417 9.35942C20.1951 9.32135 20.1774 9.24899 20.1729 9.24899C20.1418 9.21514 20.0714 9.23547 20.0242 9.22999C20.0017 9.22999 19.9278 9.21958 19.9629 9.15757C19.9923 9.11896 20.0031 9.09585 20.0229 9.04832C20.0452 9.00177 20.0256 8.97042 19.9454 8.94496C19.9046 8.93793 19.8764 8.9358 19.8467 8.93667ZM17.7051 13.0559C17.7048 13.056 17.7042 13.0569 17.7039 13.0571C17.4667 13.1148 17.4741 13.3487 17.6263 13.4513C15.1226 13.4513 11.2803 13.4109 10.4563 13.4109C9.99534 13.4109 8.53686 13.3587 8.50882 13.3587C8.82162 13.7933 9.2747 13.8818 9.86762 13.8907C10.9797 13.8907 16.1324 13.8776 17.5988 13.8776C17.4945 14.0535 17.6083 14.3364 17.69 14.3883C17.6918 14.3893 17.6946 14.391 17.6963 14.3918C17.6993 14.3933 17.7034 14.3947 17.7063 14.3954C17.7073 14.3956 17.7091 14.3953 17.71 14.3954C17.8071 14.4171 17.8499 14.3504 17.8825 14.3016C18.04 14.3148 18.9264 14.3269 19.0075 14.3004C19.0078 14.3003 19.0085 14.2993 19.0088 14.2992C19.0637 14.3759 19.1181 14.4484 19.2225 14.4358C19.4053 14.3985 19.5492 14.3796 19.5538 14.0273C19.5538 14.0273 19.5351 13.4268 19.12 13.4644C19.0218 13.4785 18.7463 13.5048 18.7463 13.5048C18.4274 13.4687 18.1935 13.4651 17.8351 13.4526C17.8681 13.4127 17.9265 13.251 17.8551 13.1925C17.8364 13.1777 17.8086 13.1695 17.77 13.1723H17.7688C17.7683 13.1723 17.7668 13.1724 17.7663 13.1723C17.766 13.1722 17.7653 13.1712 17.765 13.1711C17.764 13.1707 17.7623 13.1705 17.7613 13.1699C17.759 13.1682 17.7569 13.1662 17.755 13.164C17.7546 13.1635 17.753 13.1622 17.7525 13.1616C17.7344 13.1365 17.7245 13.0751 17.7125 13.0595L17.7113 13.0583L17.7101 13.0571C17.7092 13.0567 17.7084 13.0563 17.7075 13.0559H17.7063C17.7061 13.0559 17.7052 13.0559 17.7051 13.0559L17.7051 13.0559ZM17.8751 13.9144C17.8755 13.9143 17.8759 13.9146 17.8763 13.9144C18.2416 13.9314 18.5848 13.9177 18.9501 13.9346C19.008 13.9814 18.9791 14.0885 18.9413 14.108C18.9393 14.109 18.9372 14.1098 18.9351 14.1104C18.9337 14.1107 18.9315 14.1104 18.9301 14.1104C18.9287 14.1104 18.9265 14.1107 18.9251 14.1104C18.8063 14.1076 18.7376 14.1049 18.6189 14.1021C18.6188 14.0965 18.6179 14.0909 18.6163 14.0854C18.5882 14.0062 18.3843 14.0115 18.3363 14.0736L18.3339 14.0771C18.3331 14.0784 18.332 14.0806 18.3313 14.0819C18.3306 14.0835 18.3294 14.0862 18.3289 14.0878C18.3281 14.0902 18.3279 14.0937 18.3276 14.0961C18.3273 14.099 18.3261 14.1026 18.3264 14.1056C18.166 14.1239 18.0217 14.1006 17.8614 14.095C17.8143 14.0393 17.8198 13.9387 17.8751 13.9145V13.9144Z" fill="white"/>
</svg>
