<svg width="59" height="59" viewBox="0 0 59 59" fill="none" xmlns="http://www.w3.org/2000/svg">
<path fill-rule="evenodd" clip-rule="evenodd" d="M0 0H59V59H0V0Z" fill="white"/>
<path fill-rule="evenodd" clip-rule="evenodd" d="M29.3732 31.2753H12.2107L3.70361 46.2121H20.9158L29.3732 31.2753ZM38.0933 15.9524L29.5122 0.867188L20.9063 15.9524L29.5122 31.0623L38.0933 15.9524ZM38.0845 46.2121H55.2963L46.7893 31.2753H29.6267L38.0845 46.2121Z" fill="#CC2229"/>
<path fill-rule="evenodd" clip-rule="evenodd" d="M37.3206 57.9166H38.6059V51.0506H37.3206V57.9166ZM51.735 57.9166H53.0206V51.0506H51.735V57.9166ZM13.1638 57.9166H14.4491V51.0506H13.1638V57.9166ZM19.3617 51.0506H15.3866V52.2149H16.7117V57.9166H18.0367V52.2149H19.3617V51.0506ZM49.1615 53.6605H46.2674V51.0506H44.9822V57.9166H46.2674V54.8249H49.1615V57.9166H50.4461V51.0506H49.1615V53.6605ZM9.01519 54.1221L7.81044 51.0506H6.32471V57.9166H7.60965V53.6605L9.01519 57.0734L10.3803 53.6204V57.9166H11.665V51.0506H10.2196L9.01519 54.1221ZM30.2507 51.0512H28.9774V55.9497C28.9774 56.4829 28.3802 56.9148 27.847 56.9148C27.3141 56.9148 26.7169 56.4829 26.7169 55.9497V51.0512H25.4201L25.439 55.8897C25.439 57.1285 26.608 58.1327 27.8467 58.1327C29.0857 58.1327 30.2547 57.1285 30.2547 55.8897L30.2507 51.0512ZM35.2065 54.2026C35.3871 54.082 36.0696 53.6804 36.0696 52.8176C36.0696 51.6125 35.1061 51.0708 34.4633 51.0509H31.4866V57.9169H34.1217C35.1661 57.9169 36.29 57.4149 36.29 56.0899C36.2903 54.9455 35.7489 54.5035 35.2065 54.2026ZM34.1826 56.7523H32.7725V52.2149H34.1223C34.4841 52.2149 34.7651 52.5161 34.7651 52.8776C34.7651 53.2391 34.6246 53.6605 34.1428 53.6605H33.5815V54.8252H34.1829C34.5447 54.8252 35.0461 55.1665 35.0265 55.8689C35.0088 56.471 34.5239 56.7523 34.1826 56.7523ZM19.8763 55.6883C19.8662 55.7584 19.8763 55.8389 19.8809 55.9693C19.8809 57.1532 20.8404 58.0528 22.0244 58.0528C23.2083 58.0528 24.1679 57.2539 24.1679 56.0697C24.1679 55.4468 23.9239 54.9657 23.5 54.5739C23.1538 54.2543 22.1676 53.775 21.7835 53.5399C21.422 53.3189 21.2515 53.1488 21.2429 52.8274C21.2429 52.3569 21.5539 52.0257 22.0244 52.0257C22.2503 52.0257 22.467 52.1155 22.6267 52.2752C22.7865 52.435 22.8762 52.6517 22.8762 52.8776C22.8848 52.9982 22.8878 53.1185 22.8878 53.1987H24.0262V52.8776C24.0262 51.7723 23.3295 50.896 22.0244 50.896C20.9191 50.896 20.0226 51.6529 20.0226 52.8776C20.0266 53.4196 20.2775 53.9415 20.9001 54.3532C21.5689 54.7952 22.4057 55.1258 22.6867 55.407C22.8563 55.5766 22.9613 55.8108 22.9613 56.0694C22.9613 56.5867 22.5417 56.9561 22.0241 56.9561C21.5065 56.9561 21.0905 56.501 21.0268 56.0694C21.0134 55.9592 20.98 55.7685 20.9901 55.688H19.8763V55.6883ZM41.5788 53.5399C41.2171 53.3189 41.0469 53.1488 41.0377 52.8274C41.0377 52.3569 41.3493 52.0257 41.8197 52.0257C42.0456 52.0259 42.2621 52.1157 42.4217 52.2755C42.5813 52.4352 42.671 52.6518 42.671 52.8776C42.6798 52.9982 42.6829 53.1185 42.6829 53.1987H43.8212V52.8776C43.8212 51.7723 43.1243 50.896 41.8197 50.896C40.7139 50.896 39.8176 51.6529 39.8176 52.8776C39.8219 53.4196 40.0729 53.9415 40.6952 54.3532C41.3643 54.7952 42.2011 55.1258 42.4821 55.407C42.6514 55.5766 42.7564 55.8108 42.7564 56.0694C42.7564 56.5867 42.3367 56.9561 41.8194 56.9561C41.3018 56.9561 40.8856 56.501 40.8216 56.0694C40.8084 55.9592 40.7751 55.7685 40.7852 55.688H39.6707C39.6606 55.7581 39.6707 55.8386 39.6756 55.969C39.6756 57.1529 40.6352 58.0525 41.8194 58.0525C43.0031 58.0525 43.9626 57.2536 43.9626 56.0694C43.9626 55.4465 43.7187 54.9654 43.2948 54.5736C42.9489 54.2543 41.9627 53.775 41.5788 53.5399Z" fill="black"/>
</svg>
