<?xml version="1.0" encoding="UTF-8"?>
<svg fill="none" viewBox="0 0 65 54" xmlns="http://www.w3.org/2000/svg">
<g clip-path="url(#m)">
<path d="m32.423 47.822c-0.0098-3.1976 2.5673-5.7773 5.7863-5.7828 3.1401 5e-3 5.7194 2.5847 5.7826 5.7828-0.0626 3.1619-2.6418 5.7416-5.7826 5.7863-3.219-0.0447-5.7959-2.6244-5.7863-5.7863zm5.7866 3.6547c1.7376-0.0268 3.1763-1.6597 3.1942-3.6547-0.0179-2.0332-1.4566-3.6661-3.1942-3.6547-1.8129-0.0119-3.255 1.621-3.1977 3.6547-0.0573 1.9947 1.3848 3.6276 3.1977 3.6547zm12.327-7.0046v8.8317h-2.4338v-8.8317h-3.5022v-1.9759h9.2859v1.9759h-3.3499zm6.2403 6.3928-0.9112 2.4391h-2.8902l4.5655-10.808h3.0428l4.416 10.808h-2.8904l-0.9133-2.4391h-4.4192zm2.2869-1.8246h1.52l-1.52-3.9594-1.5228 3.9594h1.5228zm-53.28-4.5682v8.8317h-2.4355v-8.8317h-3.3483v-1.9759h9.1337v1.9759h-3.3499zm3.959 3.3499c0.00481-3.1976 2.5806-5.7773 5.7817-5.7828 3.1598 5e-3 5.7395 2.5847 5.7861 5.7828-0.0466 3.1619-2.6263 5.7416-5.7861 5.7863-3.2011-0.0447-5.7771-2.6244-5.7817-5.7863zm5.7817 3.6547c1.7583-0.0268 3.1958-1.6597 3.1975-3.6547-0.0019-2.0332-1.4392-3.6661-3.1975-3.6547-1.795-0.0119-3.235 1.621-3.1931 3.6547-0.0419 1.9947 1.3981 3.6276 3.1931 3.6547zm11.266 1.8271h1.2165v-4.1115l4.2635-6.6961h-2.7391l-2.7409 4.5645-2.5886-4.5645h-2.8913l4.2635 6.6961v4.1115h1.2164z" fill="#AB002F"/>
<path d="m1.96 18.706c0 10.312 13.409 18.703 29.89 18.703 16.481 0 29.89-8.3902 29.89-18.703-2e-4 -10.313-13.409-18.702-29.89-18.702s-29.89 8.3891-29.89 18.702zm0.91722 0c0-9.8055 12.997-17.784 28.973-17.784 15.976 0 28.973 7.978 28.973 17.784 0 9.8077-12.997 17.785-28.973 17.785-15.976-2e-4 -28.973-7.9775-28.973-17.785z" fill="#000"/>
<path d="m29.026 3.4036c-6.9957 0.4272-12.077 2.2814-12.943 4.7242-0.0882 0.24614-0.1337 0.50556-0.1344 0.76702 0 0.41207 0.1165 0.82413 0.3476 1.2181 0.9709 1.6542 3.9847 3.0183 8.2734 3.75l0.454 0.0743 0.0761-0.4535c0.704-4.2942 2.2493-7.671 4.2413-9.2654l1.1286-0.90438-1.4437 0.08966zm-11.938 6.2467c-0.1495-0.2543-0.2231-0.50516-0.2231-0.75235 0-0.15593 0.0268-0.30819 0.0823-0.4632 0.6611-1.8661 5.1521-3.496 10.889-4.0218-1.6366 1.8512-2.895 4.8342-3.5515 8.4584-3.7281-0.6897-6.4087-1.8775-7.1968-3.221zm10.659 4.1077-0.0896 0.499 0.506 0.0385c1.2002 0.0897 2.441 0.1381 3.6859 0.1381 1.2461 0 2.4875-0.0484 3.6879-0.1381l0.5052-0.0385-0.0899-0.499c-0.69-3.8748-2.2249-6.1894-4.1025-6.1894-1.8789 0-3.4132 2.3146-4.103 6.1894zm4.1032-5.2722c1.2837 0 2.4687 1.9223 3.0931 4.923-1.0151 0.0663-2.049 0.1075-3.094 0.1075-1.0436 0-2.078-0.0412-3.092-0.1075 0.6226-3.0007 1.8095-4.923 3.0929-4.923zm2.5082-4.2671c1.9913 1.5944 3.5382 4.9716 4.2421 9.2653l0.0752 0.4536 0.4534-0.0743c4.2905-0.7317 7.3059-2.0963 8.2733-3.7503 0.3763-0.63564 0.4479-1.3222 0.2151-1.9846-0.8658-2.4426-5.9473-4.2967-12.942-4.7244l-1.4418-0.08966 1.1252 0.90438zm1.5074 0.19422c5.7354 0.5258 10.226 2.1587 10.885 4.0218 0.0573 0.15501 0.0842 0.30727 0.0842 0.4632 0 0.24719-0.0753 0.49805-0.2213 0.75235-0.7909 1.3432-3.4724 2.5313-7.1986 3.221-0.6565-3.6239-1.9131-6.607-3.5497-8.4584zm-24.209 5.515c-3.144 2.6336-4.8055 5.7623-4.8055 9.0493 0 7.7327 9.429 14.269 21.932 15.2l1.3964 0.1048-1.0632-0.9083c-2.7391-2.3432-4.4401-7.903-4.4401-14.51l0.0287-1.5611-0.3834-0.078c-6.5763-1.1786-11.255-3.9438-11.921-7.0403l-0.1594-0.74343-0.5841 0.48727zm-3.8874 9.0493c0-2.8186 1.3749-5.5237 3.9565-7.8731 1.2027 3.1288 5.6966 5.7353 12.049 6.9481-8e-3 0.3582-0.0151 0.8113-0.0151 0.8113 0 6.1266 1.4538 11.418 3.8516 14.272-11.392-1.2156-19.842-7.1658-19.842-14.158zm19.604-0.8264-0.0028 0.1665c0 6.1417 1.9257 10.775 4.4795 10.775 2.5529 0 4.4788-4.6336 4.4788-10.775l-0.0062-0.6627-0.4925 0.0422c-1.2988 0.1137-2.6361 0.1702-3.9796 0.1702s-2.6827-0.0565-3.978-0.1702l-0.4944-0.0447-0.0048 0.4987zm8.0328 0.4923c-0.069 5.7146-1.8693 9.533-3.5561 9.533-1.6884 0-3.4889-3.8184-3.556-9.533 1.1662 0.086 2.3574 0.1397 3.556 0.1397 1.2004 0 2.3882-0.0537 3.5561-0.1397zm15.892-8.459c-0.6655 3.0965-5.3449 5.8615-11.919 7.0403l-0.3852 0.0716 0.0305 1.5673c0 6.6074-1.7019 12.167-4.4401 14.51l-1.0633 0.9083 1.3947-0.1048c12.504-0.9314 21.933-7.4676 21.933-15.2 0-3.2871-1.6634-6.4157-4.8074-9.0493l-0.5822-0.48727-0.1607 0.74366zm0.6744 0.92c2.5833 2.3494 3.9592 5.0545 3.9592 7.8731 0 6.9927-8.4495 12.943-19.842 14.158 2.3978-2.8546 3.8516-8.1456 3.8516-14.272 0 0-0.0089-0.4533-0.0151-0.8113 6.3501-1.2128 10.844-3.8195 12.047-6.9481z" fill="#000"/>
<path d="m51.623 7.8232c0.0422 0.11649 0.0807 0.23527 0.111 0.35473 0.1729 0.687 0.1371 1.3616-0.0869 2.019 2.9828 2.4598 4.7411 5.4935 4.7411 8.7806 0 8.2045-10.987 14.857-24.539 14.857-13.553 0-24.539-6.6526-24.539-14.857 0-3.2844 1.7602-6.3206 4.7393-8.7806-0.2222-0.6574-0.258-1.332-0.0851-2.019 0.0358-0.13036 0.0834-0.25716 0.1424-0.37881-4.0702 2.8998-6.538 6.7-6.538 10.862 0 9.0878 11.765 16.454 26.28 16.454 14.513 0 26.28-7.3664 26.28-16.454 5e-4 -4.1534-2.4575-7.945-6.5061-10.838z" fill="url(#l)"/>
<path d="m35.5 13.839c-1.1582 0.0869-2.379 0.1344-3.6519 0.1344-1.2719 0-2.4918-0.0475-3.6501-0.1344h-0.0036l-0.757 0.5499c1.3965 0.1217 2.8712 0.1908 4.4114 0.1908 1.5405 0 3.0149-0.0691 4.4123-0.1908l-0.7611-0.5499zm13.424-5.765c-0.9225-3.0491-8.5272-5.2882-17.075-5.2882-8.5462 0-16.151 2.2396-17.073 5.2882-0.8008 2.6451 3.5703 5.0931 10.466 6.064l-0.5992-0.7294c-5.5785-0.9493-8.8943-2.9736-8.1293-5.1259 0.9271-2.6132 7.6608-4.5054 15.334-4.5054 7.6735 0 14.409 1.8927 15.335 4.5054 0.764 2.1525-2.5501 4.1768-8.1301 5.1259l-0.5971 0.7294c6.8936-0.9709 11.268-3.4189 10.468-6.064z" fill="url(#i)"/>
<path d="m28.208 13.839c0.6405-3.5589 2.0298-5.7829 3.6411-5.7829 1.6132 0 3.0014 2.224 3.6428 5.7829h0.0128l0.7491 0.5437c-0.6324-4.6999-2.3645-7.7033-4.4035-7.7033-2.0404 0-3.7718 3.0034-4.4033 7.7033l0.7489-0.5437h0.0121z" fill="url(#h)"/>
<path d="m36.481 17.045-0.6127 1.108c0 0.0807 0.0036 0.1637 0.0036 0.2479 0 5.8991-1.8039 10.372-4.0224 10.372-2.2206 0-4.0209-4.4732-4.0209-10.372 0-0.0931 0.0018-0.1855 0.0037-0.2747l-0.6137-1.0812c-0.018 0.4497-0.027 0.8997-0.0268 1.3497 0 6.6882 2.0853 11.754 4.6586 11.754 2.5732 0 4.6604-5.0662 4.6604-11.754-9e-4 -0.45-0.0109-0.9-0.0298-1.3497z" fill="url(#g)"/>
<path d="m25.253 14.14c0.8815-6.5324 3.5015-11.355 6.5971-11.355-3.3187 0-6.1474 4.2729-7.1972 10.636l0.5912 0.7193h0.0089z" fill="url(#f)"/>
<path d="m38.448 14.14h0.0062l0.5911-0.7193c-1.0479-6.3632-3.8785-10.636-7.1954-10.636 3.0956 4.6e-4 5.7175 4.823 6.5981 11.355z" fill="url(#e)"/>
<path d="m39.457 17.672-0.7523-0.8984h-0.0062c0.0422 0.7138 0.0662 1.4393 0.0662 2.1763 0 8.9278-3.0965 16.165-6.9149 16.165 4.2814 0 7.6315-6.7122 7.6315-16.165 0-0.4325-0.0089-0.8567-0.0243-1.2779z" fill="url(#d)"/>
<path d="m24.937 18.95c0-0.737 0.0241-1.4625 0.0654-2.1764h-0.0051l-0.7541 0.8957c-0.016 0.4267-0.0243 0.8537-0.025 1.2807 0 9.4526 3.3526 16.165 7.6323 16.165-3.817 0-6.9135-7.2374-6.9135-16.165z" fill="url(#c)"/>
<path d="m51.647 10.197c1.1403 0.9406 2.1022 1.9669 2.8546 3.0571-0.2605-1.7338-0.9502-3.3749-2.0064-4.7742-0.285-0.22649-0.5761-0.44532-0.8728-0.65627 0.0425 0.11649 0.081 0.23527 0.1108 0.35474 0.1736 0.68677 0.1378 1.3612-0.0862 2.0186zm-39.597 0c-0.2222-0.65745-0.258-1.3321-0.0851-2.0191 0.0358-0.13036 0.0834-0.25716 0.1424-0.37881-0.3059 0.22071-0.6072 0.44769-0.9037 0.6808-1.0547 1.4002-1.7442 3.0409-2.0064 4.7742 0.75235-1.0902 1.7124-2.1168 2.8528-3.0571z" fill="#2D2F34"/>
<path d="m2.4185 18.706c0-10.074 13.176-18.243 29.431-18.243 16.253 0 29.429 8.1688 29.429 18.243 0 10.076-13.176 18.242-29.429 18.242-16.256-2e-4 -29.431-8.1655-29.431-18.242zm29.431 16.409c14.513 0 26.28-7.3665 26.28-16.454 0-9.0887-11.767-16.458-26.28-16.458-14.515 0-26.281 7.3694-26.281 16.458 0 9.0878 11.766 16.454 26.281 16.454z" fill="url(#b)"/>
<path d="m24.936 18.95c0-8.834 3.0965-16.165 6.9131-16.165 3.8183 0 6.9151 7.3309 6.9151 16.165 0 8.9277-3.0968 16.165-6.9151 16.165-3.8184 0-6.9131-7.2374-6.9131-16.165zm6.9131 11.199c2.5734 0 4.6606-5.0663 4.6606-11.752 0-6.9381-2.0874-11.718-4.6606-11.718-2.5733 0-4.6586 4.7804-4.6586 11.718 0 6.6853 2.0853 11.752 4.6586 11.752z" fill="url(#a)"/>
<path d="m11.965 8.1777c0.7586-3.0032 9.9322-7.3742 19.884-7.3742 9.9513 0 18.81 3.1231 19.885 7.3742 1.203 4.765-7.6379 9.0773-19.885 9.0773-12.249 0-21.089-4.3121-19.884-9.0773zm19.884-5.3921c-8.5462 0-16.151 2.2396-17.073 5.2882-1.0337 3.4155 6.5565 6.5056 17.073 6.5056 10.519 0 18.108-3.0905 17.075-6.5056-0.9225-3.0491-8.5267-5.2882-17.075-5.2882z" fill="url(#k)"/>
<path d="m27.209 17.036 0.0053 0.0037 0.6315 1.1133c1.2853 0.1098 2.6219 0.1727 4.0039 0.1727 1.3885 0 2.7283-0.0626 4.022-0.1755l0.6146-1.1109 0.0036-0.0037c-1.4778 0.1405-3.0275 0.2185-4.6397 0.2185-1.5496 9e-4 -3.0984-0.0719-4.6412-0.2181zm24.629-7.8284c-0.1578 3.407-5.3949 6.4256-13.136 7.5631l0.0028 0.0028 0.7551 0.9023c7.5746-1.3616 12.558-4.7063 12.378-8.4682zm-39.977 0c-0.1791 3.7656 4.8035 7.1064 12.377 8.4682l0.7569-0.9023 0.0018-0.0028c-7.7427-1.1373-12.976-4.1559-13.136-7.5631z" fill="url(#j)"/>
</g>
<defs>
<linearGradient id="l" x1="31.849" x2="31.849" y1="33.083" y2="12.295" gradientUnits="userSpaceOnUse">
<stop stop-color="#F0F3F5" offset="0"/>
<stop stop-color="#E2E5E8" offset=".056"/>
<stop stop-color="#D4D8DD" offset=".138"/>
<stop stop-color="#CCD0D6" offset=".242"/>
<stop stop-color="#CACED4" offset=".44"/>
<stop stop-color="#B3B7BD" offset=".568"/>
<stop stop-color="#797C83" offset=".835"/>
<stop stop-color="#52545C" offset="1"/>
</linearGradient>
<linearGradient id="i" x1="31.85" x2="31.85" y1="17.244" y2="5.9794" gradientUnits="userSpaceOnUse">
<stop stop-color="#F0F3F5" offset="0"/>
<stop stop-color="#E2E5E8" offset=".056"/>
<stop stop-color="#D4D8DD" offset=".138"/>
<stop stop-color="#CCD0D6" offset=".242"/>
<stop stop-color="#CACED4" offset=".44"/>
<stop stop-color="#B3B7BD" offset=".568"/>
<stop stop-color="#797C83" offset=".835"/>
<stop stop-color="#52545C" offset="1"/>
</linearGradient>
<linearGradient id="h" x1="35.59" x2="28.556" y1="15.173" y2="9.2716" gradientUnits="userSpaceOnUse">
<stop stop-color="#F0F3F5" offset="0"/>
<stop stop-color="#E2E5E8" offset=".056"/>
<stop stop-color="#D4D8DD" offset=".138"/>
<stop stop-color="#CCD0D6" offset=".242"/>
<stop stop-color="#CACED4" offset=".44"/>
<stop stop-color="#B3B7BD" offset=".568"/>
<stop stop-color="#797C83" offset=".835"/>
<stop stop-color="#52545C" offset="1"/>
</linearGradient>
<linearGradient id="g" x1="36.305" x2="26.049" y1="24.992" y2="19.07" gradientUnits="userSpaceOnUse">
<stop stop-color="#F0F3F5" offset="0"/>
<stop stop-color="#E2E5E8" offset=".056"/>
<stop stop-color="#D4D8DD" offset=".138"/>
<stop stop-color="#CCD0D6" offset=".242"/>
<stop stop-color="#CACED4" offset=".44"/>
<stop stop-color="#B3B7BD" offset=".568"/>
<stop stop-color="#797C83" offset=".835"/>
<stop stop-color="#52545C" offset="1"/>
</linearGradient>
<linearGradient id="f" x1="28.252" x2="28.252" y1=".46113" y2="18.328" gradientUnits="userSpaceOnUse">
<stop stop-color="#F0F3F5" offset="0"/>
<stop stop-color="#E2E5E8" offset=".056"/>
<stop stop-color="#D4D8DD" offset=".138"/>
<stop stop-color="#CCD0D6" offset=".242"/>
<stop stop-color="#CACED4" offset=".44"/>
<stop stop-color="#B3B7BD" offset=".568"/>
<stop stop-color="#797C83" offset=".835"/>
<stop stop-color="#52545C" offset="1"/>
</linearGradient>
<linearGradient id="e" x1="35.447" x2="35.447" y1=".46113" y2="18.328" gradientUnits="userSpaceOnUse">
<stop stop-color="#F0F3F5" offset="0"/>
<stop stop-color="#E2E5E8" offset=".056"/>
<stop stop-color="#D4D8DD" offset=".138"/>
<stop stop-color="#CCD0D6" offset=".242"/>
<stop stop-color="#CACED4" offset=".44"/>
<stop stop-color="#B3B7BD" offset=".568"/>
<stop stop-color="#797C83" offset=".835"/>
<stop stop-color="#52545C" offset="1"/>
</linearGradient>
<linearGradient id="d" x1="35.665" x2="35.665" y1=".31094" y2="30.128" gradientUnits="userSpaceOnUse">
<stop stop-color="#F0F3F5" offset="0"/>
<stop stop-color="#E2E5E8" offset=".056"/>
<stop stop-color="#D4D8DD" offset=".138"/>
<stop stop-color="#CCD0D6" offset=".242"/>
<stop stop-color="#CACED4" offset=".44"/>
<stop stop-color="#B3B7BD" offset=".568"/>
<stop stop-color="#797C83" offset=".835"/>
<stop stop-color="#52545C" offset="1"/>
</linearGradient>
<linearGradient id="c" x1="28.034" x2="28.034" y1=".31091" y2="30.128" gradientUnits="userSpaceOnUse">
<stop stop-color="#F0F3F5" offset="0"/>
<stop stop-color="#E2E5E8" offset=".056"/>
<stop stop-color="#D4D8DD" offset=".138"/>
<stop stop-color="#CCD0D6" offset=".242"/>
<stop stop-color="#CACED4" offset=".44"/>
<stop stop-color="#B3B7BD" offset=".568"/>
<stop stop-color="#797C83" offset=".835"/>
<stop stop-color="#52545C" offset="1"/>
</linearGradient>
<linearGradient id="b" x1="31.849" x2="31.849" y1=".46289" y2="36.948" gradientUnits="userSpaceOnUse">
<stop stop-color="#F0F3F5" offset="0"/>
<stop stop-color="#EDF0F3" offset=".253"/>
<stop stop-color="#E5E8EA" offset=".406"/>
<stop stop-color="#D7DADC" offset=".531"/>
<stop stop-color="#C3C5C9" offset=".642"/>
<stop stop-color="#A9ABAF" offset=".744"/>
<stop stop-color="#888B90" offset=".839"/>
<stop stop-color="#63656B" offset=".926"/>
<stop stop-color="#3D3F46" offset="1"/>
</linearGradient>
<linearGradient id="a" x1="31.85" x2="31.85" y1=".46093" y2="36.948" gradientUnits="userSpaceOnUse">
<stop stop-color="#F0F3F5" offset="0"/>
<stop stop-color="#EDF0F3" offset=".253"/>
<stop stop-color="#E5E8EA" offset=".406"/>
<stop stop-color="#D7DADC" offset=".531"/>
<stop stop-color="#C3C5C9" offset=".642"/>
<stop stop-color="#A9ABAF" offset=".744"/>
<stop stop-color="#888B90" offset=".839"/>
<stop stop-color="#63656B" offset=".926"/>
<stop stop-color="#3D3F46" offset="1"/>
</linearGradient>
<linearGradient id="k" x1="31.849" x2="31.849" y1=".46501" y2="36.952" gradientUnits="userSpaceOnUse">
<stop stop-color="#F0F3F5" offset="0"/>
<stop stop-color="#EDF0F3" offset=".253"/>
<stop stop-color="#E5E8EA" offset=".406"/>
<stop stop-color="#D7DADC" offset=".531"/>
<stop stop-color="#C3C5C9" offset=".642"/>
<stop stop-color="#A9ABAF" offset=".744"/>
<stop stop-color="#888B90" offset=".839"/>
<stop stop-color="#63656B" offset=".926"/>
<stop stop-color="#3D3F46" offset="1"/>
</linearGradient>
<linearGradient id="j" x1="31.85" x2="31.85" y1="8.0298" y2="18.428" gradientUnits="userSpaceOnUse">
<stop stop-color="#CACED4" offset="0"/>
<stop stop-color="#52545C" offset="1"/>
</linearGradient>
<clipPath id="m">
<rect width="65" height="53.612" fill="#fff"/>
</clipPath>
</defs>
</svg>
